<svg width="28" height="29" viewBox="0 0 28 29" fill="none" xmlns="http://www.w3.org/2000/svg">
<g clip-path="url(#clip0_5681_279)">
<path d="M14 2.84778C17.1698 2.84778 17.5653 2.85944 18.809 2.91778C20.0515 2.97611 20.8973 3.17095 21.6417 3.46028C22.4117 3.75661 23.0603 4.15795 23.709 4.80545C24.3022 5.38866 24.7613 6.09413 25.0542 6.87278C25.3423 7.61595 25.5383 8.46294 25.5967 9.70545C25.6515 10.9491 25.6667 11.3446 25.6667 14.5144C25.6667 17.6843 25.655 18.0798 25.5967 19.3234C25.5383 20.5659 25.3423 21.4118 25.0542 22.1561C24.7621 22.9352 24.303 23.6408 23.709 24.2234C23.1256 24.8165 22.4202 25.2755 21.6417 25.5686C20.8985 25.8568 20.0515 26.0528 18.809 26.1111C17.5653 26.1659 17.1698 26.1811 14 26.1811C10.8302 26.1811 10.4347 26.1694 9.191 26.1111C7.9485 26.0528 7.10267 25.8568 6.35834 25.5686C5.57938 25.2763 4.87378 24.8172 4.291 24.2234C3.69764 23.6403 3.23859 22.9348 2.94584 22.1561C2.6565 21.4129 2.46167 20.5659 2.40334 19.3234C2.3485 18.0798 2.33334 17.6843 2.33334 14.5144C2.33334 11.3446 2.345 10.9491 2.40334 9.70545C2.46167 8.46178 2.6565 7.61711 2.94584 6.87278C3.23778 6.09365 3.69694 5.38799 4.291 4.80545C4.87395 4.21188 5.5795 3.7528 6.35834 3.46028C7.10267 3.17095 7.94734 2.97611 9.191 2.91778C10.4347 2.86294 10.8302 2.84778 14 2.84778ZM14 8.68111C12.4529 8.68111 10.9692 9.29569 9.87521 10.3897C8.78125 11.4836 8.16667 12.9673 8.16667 14.5144C8.16667 16.0615 8.78125 17.5453 9.87521 18.6392C10.9692 19.7332 12.4529 20.3478 14 20.3478C15.5471 20.3478 17.0308 19.7332 18.1248 18.6392C19.2188 17.5453 19.8333 16.0615 19.8333 14.5144C19.8333 12.9673 19.2188 11.4836 18.1248 10.3897C17.0308 9.29569 15.5471 8.68111 14 8.68111ZM21.5833 8.38945C21.5833 8.00267 21.4297 7.63174 21.1562 7.35825C20.8827 7.08476 20.5118 6.93111 20.125 6.93111C19.7382 6.93111 19.3673 7.08476 19.0938 7.35825C18.8203 7.63174 18.6667 8.00267 18.6667 8.38945C18.6667 8.77622 18.8203 9.14715 19.0938 9.42064C19.3673 9.69413 19.7382 9.84778 20.125 9.84778C20.5118 9.84778 20.8827 9.69413 21.1562 9.42064C21.4297 9.14715 21.5833 8.77622 21.5833 8.38945ZM14 11.0144C14.9283 11.0144 15.8185 11.3832 16.4749 12.0396C17.1313 12.6959 17.5 13.5862 17.5 14.5144C17.5 15.4427 17.1313 16.3329 16.4749 16.9893C15.8185 17.6457 14.9283 18.0144 14 18.0144C13.0717 18.0144 12.1815 17.6457 11.5251 16.9893C10.8688 16.3329 10.5 15.4427 10.5 14.5144C10.5 13.5862 10.8688 12.6959 11.5251 12.0396C12.1815 11.3832 13.0717 11.0144 14 11.0144Z" fill="#888888"/>
</g>
<defs>
<clipPath id="clip0_5681_279">
<rect width="28" height="28" fill="white" transform="translate(0 0.514404)"/>
</clipPath>
</defs>
</svg>
