<svg width="24" height="21" viewBox="0 0 24 21" fill="none" xmlns="http://www.w3.org/2000/svg">
<path d="M23.8557 3.11299C22.965 3.50696 22.0205 3.7657 21.0533 3.88065C22.0727 3.27099 22.8357 2.3115 23.2 1.18099C22.2433 1.75032 21.1945 2.14932 20.1013 2.36515C19.3671 1.57949 18.3938 1.05844 17.3328 0.883001C16.2718 0.707559 15.1826 0.887558 14.2345 1.39501C13.2864 1.90247 12.5325 2.70895 12.09 3.68908C11.6475 4.6692 11.5412 5.76806 11.7877 6.81482C9.84763 6.71758 7.94973 6.21343 6.21718 5.33509C4.48462 4.45676 2.95616 3.22387 1.73101 1.71649C1.29735 2.46134 1.06946 3.30808 1.07067 4.16999C1.07067 5.86165 1.93167 7.35615 3.24067 8.23115C2.46602 8.20677 1.70841 7.99756 1.03101 7.62099V7.68165C1.03124 8.8083 1.42111 9.9002 2.1345 10.7722C2.84789 11.6442 3.8409 12.2427 4.94517 12.4662C4.22606 12.661 3.47203 12.6898 2.74017 12.5502C3.05152 13.5199 3.65835 14.3681 4.4757 14.9758C5.29305 15.5835 6.27999 15.9204 7.29834 15.9393C6.28624 16.7342 5.12738 17.3218 3.88804 17.6685C2.64869 18.0152 1.35316 18.1143 0.0755081 17.96C2.30582 19.3943 4.90212 20.1558 7.55384 20.1533C16.529 20.1533 21.4372 12.7182 21.4372 6.26999C21.4372 6.05999 21.4313 5.84765 21.422 5.63999C22.3773 4.94951 23.2019 4.09417 23.8568 3.11415L23.8557 3.11299Z" fill="#888888"/>
</svg>
